<svg width="97" height="107" viewBox="0 0 97 107" fill="none" xmlns="http://www.w3.org/2000/svg">
<path d="M0 35.1V71.7C0 77.7 3.2 83.2 8.4 86.2L40.1 104.5C45.3 107.5 51.7 107.5 56.8 104.5L88.5 86.2C93.7 83.2 96.9 77.7 96.9 71.7V35.1C96.9 29.1 93.7 23.6 88.5 20.6L56.8 2.2C51.6 -0.8 45.2 -0.8 40.1 2.2L8.4 20.6C3.2 23.6 0 29.1 0 35.1Z" fill="url(#paint0_linear_2_3)"/>
<path d="M48.5 100.4C45.3 100.4 42.1 99.6 39.2 97.9L14.6 83.7C8.9 80.4 5.3 74.2 5.3 67.6V39.2C5.3 32.6 8.9 26.4 14.6 23.1L39.2 8.9C44.9 5.6 52 5.6 57.8 8.9L82.4 23.1C88.1 26.4 91.7 32.6 91.7 39.2V67.6C91.7 74.2 88.1 80.4 82.4 83.7L57.8 97.9C54.9 99.6 51.7 100.4 48.5 100.4ZM48.5 10C45.9 10 43.3 10.7 41 12L16.4 26.2C11.8 28.9 8.9 33.8 8.9 39.1V67.5C8.9 72.8 11.8 77.8 16.4 80.4L41 94.7C45.6 97.4 51.3 97.4 55.9 94.7L80.5 80.5C85.1 77.8 88 72.9 88 67.6V39.2C88 33.9 85.1 28.9 80.5 26.3L55.9 12C53.6 10.7 51.1 10 48.5 10Z" fill="url(#paint1_linear_2_3)"/>
<path d="M75 69.4C62.5 57.9 46.2 59.5 46.2 59.5C41.6 59.6 31.1 60.7 22 69.4C20 71.3 20.5 74.5 22.9 75.8L44 87.3C46.8 88.8 50.2 88.8 53 87.3L74.1 75.8C76.5 74.5 77 71.2 75 69.4Z" fill="url(#paint2_linear_2_3)"/>
<path d="M48.5 53.4C56.0111 53.4 62.1 47.3111 62.1 39.8C62.1 32.2889 56.0111 26.2 48.5 26.2C40.9889 26.2 34.9 32.2889 34.9 39.8C34.9 47.3111 40.9889 53.4 48.5 53.4Z" fill="url(#paint3_linear_2_3)"/>
<defs>
<linearGradient id="paint0_linear_2_3" x1="48.7058" y1="78.1666" x2="47.3315" y2="-67.51" gradientUnits="userSpaceOnUse">
<stop offset="0.0912444" stop-color="white"/>
<stop offset="1" stop-color="#E3E3E3"/>
</linearGradient>
<linearGradient id="paint1_linear_2_3" x1="-16.4414" y1="31.2737" x2="127.582" y2="80.3236" gradientUnits="userSpaceOnUse">
<stop stop-color="#B5B6BB"/>
<stop offset="0.0664019" stop-color="#BCBDC2"/>
<stop offset="0.1659" stop-color="#D1D1D4"/>
<stop offset="0.2687" stop-color="#EDEDEE"/>
<stop offset="0.2974" stop-color="#DFE0E1"/>
<stop offset="0.3971" stop-color="#B5B6B9"/>
<stop offset="0.4752" stop-color="#9B9CA0"/>
<stop offset="0.5216" stop-color="#919297"/>
<stop offset="0.6409" stop-color="#B2B3B7"/>
<stop offset="0.7656" stop-color="#CDCED1"/>
<stop offset="0.8763" stop-color="#DDDEE0"/>
<stop offset="0.9606" stop-color="#E3E4E6"/>
</linearGradient>
<linearGradient id="paint2_linear_2_3" x1="6.9365" y1="81.1391" x2="123.88" y2="59.8638" gradientUnits="userSpaceOnUse">
<stop stop-color="#B5B6BB"/>
<stop offset="0.0664019" stop-color="#BCBDC2"/>
<stop offset="0.1659" stop-color="#D1D1D4"/>
<stop offset="0.2687" stop-color="#EDEDEE"/>
<stop offset="0.2974" stop-color="#DFE0E1"/>
<stop offset="0.3971" stop-color="#B5B6B9"/>
<stop offset="0.4752" stop-color="#9B9CA0"/>
<stop offset="0.5216" stop-color="#919297"/>
<stop offset="0.6409" stop-color="#B2B3B7"/>
<stop offset="0.7656" stop-color="#CDCED1"/>
<stop offset="0.8763" stop-color="#DDDEE0"/>
<stop offset="0.9606" stop-color="#E3E4E6"/>
</linearGradient>
<linearGradient id="paint3_linear_2_3" x1="24.6367" y1="47.4138" x2="73.5491" y2="31.8055" gradientUnits="userSpaceOnUse">
<stop stop-color="#B5B6BB"/>
<stop offset="0.0664019" stop-color="#BCBDC2"/>
<stop offset="0.1659" stop-color="#D1D1D4"/>
<stop offset="0.2687" stop-color="#EDEDEE"/>
<stop offset="0.2974" stop-color="#DFE0E1"/>
<stop offset="0.3971" stop-color="#B5B6B9"/>
<stop offset="0.4752" stop-color="#9B9CA0"/>
<stop offset="0.5216" stop-color="#919297"/>
<stop offset="0.6409" stop-color="#B2B3B7"/>
<stop offset="0.7656" stop-color="#CDCED1"/>
<stop offset="0.8763" stop-color="#DDDEE0"/>
<stop offset="0.9606" stop-color="#E3E4E6"/>
</linearGradient>
</defs>
</svg>
