<svg width="97" height="106" viewBox="0 0 97 106" fill="none" xmlns="http://www.w3.org/2000/svg">
<g clip-path="url(#clip0_2_30)">
<path d="M0 34.8V71.2C0 77.1 3.2 82.6 8.3 85.6L39.8 103.8C44.9 106.8 51.3 106.8 56.4 103.8L87.9 85.6C93 82.6 96.2 77.1 96.2 71.2V34.8C96.2 28.9 93 23.4 87.9 20.4L56.4 2.2C51.3 -0.8 44.9 -0.8 39.8 2.2L8.3 20.4C3.2 23.4 0 28.9 0 34.8Z" fill="url(#paint0_linear_2_30)"/>
<path d="M48.1 99.6C44.9 99.6 41.7 98.8 38.9 97.1L14.4 83.1C8.70001 79.8 5.20001 73.7 5.20001 67.1V38.9C5.20001 32.3 8.70001 26.2 14.4 22.9L38.9 8.8C44.6 5.5 51.6 5.5 57.3 8.8L81.8 22.9C87.5 26.2 91 32.3 91 38.9V67.1C91 73.7 87.5 79.8 81.8 83.1L57.3 97.2C54.5 98.8 51.3 99.6 48.1 99.6ZM48.1 9.9C45.5 9.9 43 10.6 40.7 11.9L16.3 26C11.7 28.6 8.90001 33.5 8.90001 38.8V67C8.90001 72.3 11.7 77.2 16.3 79.8L40.7 94C45.3 96.6 50.9 96.6 55.5 94L80 79.9C84.6 77.3 87.4 72.4 87.4 67.1V38.9C87.4 33.6 84.6 28.7 80 26.1L55.5 11.9C53.2 10.6 50.7 9.9 48.1 9.9Z" fill="url(#paint1_linear_2_30)"/>
<path d="M74.4 68.9C62 57.5 45.8 59.1 45.8 59.1C41.3 59.2 30.8 60.3 21.7 68.9C19.7 70.7 20.2 74 22.6 75.3L43.6 86.7C46.4 88.2 49.8 88.2 52.6 86.7L73.6 75.3C76 73.9 76.4 70.7 74.4 68.9Z" fill="url(#paint2_radial_2_30)"/>
<path d="M48.1 53C55.5559 53 61.6 46.9558 61.6 39.5C61.6 32.0442 55.5559 26 48.1 26C40.6442 26 34.6 32.0442 34.6 39.5C34.6 46.9558 40.6442 53 48.1 53Z" fill="url(#paint3_radial_2_30)"/>
</g>
<defs>
<linearGradient id="paint0_linear_2_30" x1="48.3552" y1="78.7643" x2="46.9912" y2="-65.8307" gradientUnits="userSpaceOnUse">
<stop offset="0.0912444" stop-color="white"/>
<stop offset="1" stop-color="#E3E3E3"/>
</linearGradient>
<linearGradient id="paint1_linear_2_30" x1="5.23181" y1="52.9845" x2="90.9925" y2="52.9845" gradientUnits="userSpaceOnUse">
<stop stop-color="#C065DE"/>
<stop offset="1" stop-color="#5D28FE"/>
</linearGradient>
<radialGradient id="paint2_radial_2_30" cx="0" cy="0" r="1" gradientUnits="userSpaceOnUse" gradientTransform="translate(25.3691 57.8118) scale(42.6047)">
<stop offset="0.0900557" stop-color="#C065DE"/>
<stop offset="1" stop-color="#5D28FE"/>
</radialGradient>
<radialGradient id="paint3_radial_2_30" cx="0" cy="0" r="1" gradientUnits="userSpaceOnUse" gradientTransform="translate(41.0295 29.1856) scale(29.072)">
<stop offset="0.0900557" stop-color="#C065DE"/>
<stop offset="0.6821" stop-color="#5D28FE"/>
<stop offset="0.9451" stop-color="#B687F7"/>
</radialGradient>
<clipPath id="clip0_2_30">
<rect width="96.2" height="106" fill="white"/>
</clipPath>
</defs>
</svg>
