<svg width="94" height="103" viewBox="0 0 94 103" fill="none" xmlns="http://www.w3.org/2000/svg">
<path d="M0 33.8649V69.1351C0 74.8963 3.10977 80.236 8.05714 83.0464L38.8722 100.752C43.9609 103.703 50.0391 103.703 55.1278 100.752L85.9429 83.0464C91.0316 80.0955 94 74.8963 94 69.1351V33.8649C94 28.1037 90.8902 22.764 85.9429 19.9536L55.1278 2.10777C50.0391 -0.843114 43.9609 -0.843114 38.8722 2.10777L8.05714 19.8131C3.10977 22.764 0 28.1037 0 33.8649Z" fill="url(#paint0_linear_2_17)"/>
<path d="M47.0707 96.8172C43.9609 96.8172 40.8511 95.9741 38.0241 94.4284L14.1353 80.6576C8.62256 77.4256 5.08872 71.5239 5.08872 65.2005V37.7994C5.08872 31.4761 8.4812 25.4338 14.1353 22.3424L38.0241 8.57162C43.5368 5.33969 50.4632 5.33969 55.9759 8.57162L79.8647 22.3424C85.3774 25.5743 88.9113 31.4761 88.9113 37.7994V65.2005C88.9113 71.5239 85.5188 77.5662 79.8647 80.6576L55.9759 94.4284C53.2902 95.9741 50.1804 96.8172 47.0707 96.8172ZM47.0707 9.69576C44.5263 9.69576 42.1233 10.3984 39.8617 11.663L15.8316 25.2933C11.3083 27.8226 8.62256 32.6003 8.62256 37.7994V65.2005C8.62256 70.2592 11.4496 75.0368 15.8316 77.7067L39.7203 91.337C44.2436 93.8663 49.7564 93.8663 54.1383 91.337L78.0271 77.5662C82.5504 75.0368 85.2361 70.2592 85.2361 65.06V37.7994C85.2361 32.7408 82.409 27.9632 78.0271 25.2933L54.2797 11.5225C52.018 10.2578 49.4737 9.69576 47.0707 9.69576Z" fill="url(#paint1_linear_2_17)"/>
<path d="M72.6556 66.8868C60.6406 55.7858 44.6677 57.3315 44.6677 57.3315C40.2857 57.3315 30.1083 58.4556 21.203 66.8868C19.3654 68.7135 19.7895 71.8049 22.0511 73.0696L42.5474 84.1705C45.2331 85.5757 48.6256 85.5757 51.3113 84.1705L71.9489 73.0696C74.2105 71.8049 74.6346 68.7135 72.6556 66.8868Z" fill="url(#paint2_linear_2_17)"/>
<path d="M47.0707 51.4297C54.3309 51.4297 60.2165 45.5789 60.2165 38.3615C60.2165 31.1441 54.3309 25.2933 47.0707 25.2933C39.8104 25.2933 33.9248 31.1441 33.9248 38.3615C33.9248 45.5789 39.8104 51.4297 47.0707 51.4297Z" fill="url(#paint3_linear_2_17)"/>
<defs>
<linearGradient id="paint0_linear_2_17" x1="47.0109" y1="93.4026" x2="47.0109" y2="0.622077" gradientUnits="userSpaceOnUse">
<stop offset="0.0912444" stop-color="white"/>
<stop offset="0.5866" stop-color="#FDFDFD"/>
<stop offset="0.7932" stop-color="#F6F6F6"/>
<stop offset="0.9456" stop-color="#EAEAEA"/>
<stop offset="1" stop-color="#E3E3E3"/>
</linearGradient>
<linearGradient id="paint1_linear_2_17" x1="-15.9459" y1="30.1519" x2="123.564" y2="77.947" gradientUnits="userSpaceOnUse">
<stop offset="0.0586592" stop-color="#C4A18B"/>
<stop offset="0.2516" stop-color="#996950"/>
<stop offset="0.3099" stop-color="#9F7057"/>
<stop offset="0.3973" stop-color="#AF836C"/>
<stop offset="0.4421" stop-color="#BA8F79"/>
<stop offset="0.5171" stop-color="#BF9681"/>
<stop offset="0.6312" stop-color="#CCA896"/>
<stop offset="0.7697" stop-color="#E1C5B8"/>
<stop offset="0.805" stop-color="#E7CEC2"/>
</linearGradient>
<linearGradient id="paint2_linear_2_17" x1="4.90609" y1="67.5149" x2="91.028" y2="75.1913" gradientUnits="userSpaceOnUse">
<stop offset="0.0586592" stop-color="#C4A18B"/>
<stop offset="0.2516" stop-color="#996950"/>
<stop offset="0.3099" stop-color="#9F7057"/>
<stop offset="0.3973" stop-color="#AF836C"/>
<stop offset="0.4421" stop-color="#BA8F79"/>
<stop offset="0.5171" stop-color="#BF9681"/>
<stop offset="0.6312" stop-color="#CCA896"/>
<stop offset="0.7697" stop-color="#E1C5B8"/>
<stop offset="0.805" stop-color="#E7CEC2"/>
</linearGradient>
<linearGradient id="paint3_linear_2_17" x1="30.5548" y1="41.594" x2="99.5968" y2="27.9486" gradientUnits="userSpaceOnUse">
<stop offset="0.0586592" stop-color="#C4A18B"/>
<stop offset="0.2516" stop-color="#996950"/>
<stop offset="0.2938" stop-color="#9F7057"/>
<stop offset="0.357" stop-color="#AF836C"/>
<stop offset="0.3895" stop-color="#BA8F79"/>
<stop offset="0.4753" stop-color="#BF9681"/>
<stop offset="0.606" stop-color="#CCA896"/>
<stop offset="0.7646" stop-color="#E1C5B8"/>
<stop offset="0.805" stop-color="#E7CEC2"/>
</linearGradient>
</defs>
</svg>
